<?xml version="1.0" encoding="utf-8"?>
<!-- Generator: Adobe Illustrator 27.2.0, SVG Export Plug-In . SVG Version: 6.00 Build 0)  -->
<svg version="1.1" id="LETTER" xmlns="http://www.w3.org/2000/svg" xmlns:xlink="http://www.w3.org/1999/xlink" x="0px" y="0px"
	 viewBox="0 0 50 50" style="enable-background:new 0 0 50 50;" xml:space="preserve">
<style type="text/css">
	.st0{fill:#ED1C24;}
</style>
<g>
	<path class="st0" d="M28,35l-1.3-4.7c0.7-0.5,1.2-1.4,1.2-2.4c0-1.6-1.3-2.9-2.9-2.9s-2.9,1.3-2.9,2.9c0,1,0.5,1.8,1.2,2.4L22,35
		H28z"/>
	<path class="st0" d="M21,17v-3c0-2.2,1.8-4,4-4s4,1.8,4,4h4c0-4.4-3.6-8-8-8s-8,3.6-8,8v3h-4v26h24V17H21z M33,39H17V21h16V39z"/>
</g>
</svg>
